<?xml version="1.0" encoding="UTF-8"?>
<!DOCTYPE svg PUBLIC "-//W3C//DTD SVG 1.1//EN" "http://www.w3.org/Graphics/SVG/1.1/DTD/svg11.dtd">
<svg xmlns="http://www.w3.org/2000/svg" version="1.1" width="800px" height="128px" style="shape-rendering:geometricPrecision; text-rendering:geometricPrecision; image-rendering:optimizeQuality; fill-rule:evenodd; clip-rule:evenodd" xmlns:xlink="http://www.w3.org/1999/xlink">
<g><path style="opacity:0.887" fill="#fefffe" d="M 386.5,11.5 C 394.167,11.5 401.833,11.5 409.5,11.5C 409.5,17.1667 409.5,22.8333 409.5,28.5C 401.833,28.5 394.167,28.5 386.5,28.5C 386.5,22.8333 386.5,17.1667 386.5,11.5 Z"/></g>
<g><path style="opacity:0.951" fill="#fefffe" d="M 462.5,11.5 C 469.5,11.5 476.5,11.5 483.5,11.5C 483.5,42.1667 483.5,72.8333 483.5,103.5C 476.5,103.5 469.5,103.5 462.5,103.5C 462.662,101.473 462.495,99.4727 462,97.5C 452.583,106.329 442.083,107.829 430.5,102C 421.995,93.4945 417.995,83.1612 418.5,71C 417.96,56.0756 423.96,44.7423 436.5,37C 445.064,33.4447 453.397,33.9447 461.5,38.5C 462.498,29.5246 462.832,20.5246 462.5,11.5 Z M 450.5,51.5 C 454.548,51.3946 458.548,51.7279 462.5,52.5C 462.832,63.5202 462.499,74.5202 461.5,85.5C 447.178,91.6571 440.178,86.8238 440.5,71C 440.778,65.9411 441.945,61.1078 444,56.5C 445.805,54.1743 447.972,52.5077 450.5,51.5 Z"/></g>
<g><path style="opacity:0.886" fill="#fefffe" d="M 497.5,11.5 C 505.167,11.5 512.833,11.5 520.5,11.5C 520.5,17.1667 520.5,22.8333 520.5,28.5C 512.833,28.5 505.167,28.5 497.5,28.5C 497.5,22.8333 497.5,17.1667 497.5,11.5 Z"/></g>
<g><path style="opacity:0.929" fill="#fefffe" d="M 339.5,17.5 C 346.5,17.5 353.5,17.5 360.5,17.5C 360.5,23.8333 360.5,30.1667 360.5,36.5C 367.167,36.5 373.833,36.5 380.5,36.5C 380.5,41.8333 380.5,47.1667 380.5,52.5C 373.833,52.5 367.167,52.5 360.5,52.5C 360.334,60.5069 360.5,68.5069 361,76.5C 361.16,80.2875 361.826,83.9542 363,87.5C 365.077,88.9577 367.41,89.6243 370,89.5C 373.572,89.1408 377.072,88.4741 380.5,87.5C 381.087,93.3027 380.42,98.8027 378.5,104C 367.925,106.496 357.592,105.829 347.5,102C 343.364,99.2041 340.864,95.3708 340,90.5C 339.5,77.8377 339.333,65.1711 339.5,52.5C 336.833,52.5 334.167,52.5 331.5,52.5C 331.5,47.1667 331.5,41.8333 331.5,36.5C 334.167,36.5 336.833,36.5 339.5,36.5C 339.5,30.1667 339.5,23.8333 339.5,17.5 Z"/></g>
<g><path style="opacity:0.931" fill="#fefffe" d="M 32.5,34.5 C 59.4605,34.1348 71.4605,47.4681 68.5,74.5C 53.4852,74.1673 38.4852,74.5007 23.5,75.5C 25.1678,83.6664 30.1678,88.1664 38.5,89C 47.7636,89.9111 56.097,87.5778 63.5,82C 64.7932,81.51 66.1266,81.3433 67.5,81.5C 67.5,87.8333 67.5,94.1667 67.5,100.5C 61.5961,102.3 55.5961,103.8 49.5,105C 11.8571,108.032 -2.97621,91.1988 5,54.5C 10.635,42.7839 19.8016,36.1173 32.5,34.5 Z M 31.5,49.5 C 40.9345,47.7809 46.2679,51.6142 47.5,61C 39.4792,61.8316 31.4792,61.6649 23.5,60.5C 24.5047,55.4404 27.1714,51.7737 31.5,49.5 Z"/></g>
<g><path style="opacity:0.926" fill="#fefffe" d="M 114.5,34.5 C 123.949,33.8075 131.116,37.4742 136,45.5C 144.695,35.709 155.195,32.8757 167.5,37C 172.636,40.4826 175.803,45.316 177,51.5C 177.5,68.8301 177.667,86.1635 177.5,103.5C 170.167,103.5 162.833,103.5 155.5,103.5C 155.667,88.4963 155.5,73.4963 155,58.5C 154.16,54.4985 151.66,52.4985 147.5,52.5C 144.257,53.0148 141.424,54.3481 139,56.5C 138.5,72.1631 138.333,87.8298 138.5,103.5C 131.167,103.5 123.833,103.5 116.5,103.5C 116.667,88.4963 116.5,73.4963 116,58.5C 115.16,54.4985 112.66,52.4985 108.5,52.5C 105.257,53.0148 102.424,54.3481 100,56.5C 99.5001,72.1631 99.3334,87.8298 99.5,103.5C 92.1667,103.5 84.8333,103.5 77.5,103.5C 77.5,81.1667 77.5,58.8333 77.5,36.5C 84.8333,36.5 92.1667,36.5 99.5,36.5C 99.3379,38.5273 99.5045,40.5273 100,42.5C 104.408,38.8833 109.241,36.2166 114.5,34.5 Z"/></g>
<g><path style="opacity:0.944" fill="#fefffe" d="M 212.5,127.5 C 205.5,127.5 198.5,127.5 191.5,127.5C 191.5,97.1667 191.5,66.8333 191.5,36.5C 198.5,36.5 205.5,36.5 212.5,36.5C 212.338,38.5273 212.505,40.5273 213,42.5C 225.762,31.5192 238.095,31.8525 250,43.5C 257.431,57.9982 258.431,72.9982 253,88.5C 243.983,105.216 230.817,109.55 213.5,101.5C 212.502,110.141 212.169,118.808 212.5,127.5 Z M 217.5,52.5 C 230.071,51.0704 235.737,56.7371 234.5,69.5C 235.237,85.2778 228.07,91.2778 213,87.5C 212.333,76.8333 212.333,66.1667 213,55.5C 214.652,54.6006 216.152,53.6006 217.5,52.5 Z"/></g>
<g><path style="opacity:0.925" fill="#fefffe" d="M 284.5,34.5 C 295.32,33.7476 305.654,35.5809 315.5,40C 321.11,44.053 323.943,49.553 324,56.5C 324.5,72.1631 324.667,87.8298 324.5,103.5C 317.167,103.5 309.833,103.5 302.5,103.5C 303.399,97.1098 302.065,96.2765 298.5,101C 286.932,107.758 276.098,106.925 266,98.5C 256.916,80.7477 261.749,68.581 280.5,62C 287.774,60.6178 295.107,59.7844 302.5,59.5C 301.974,54.1425 298.974,51.3092 293.5,51C 289.833,50.3333 286.167,50.3333 282.5,51C 277.441,52.4096 272.441,53.9096 267.5,55.5C 267.5,49.5 267.5,43.5 267.5,37.5C 273.349,36.8041 279.016,35.8041 284.5,34.5 Z M 294.5,73.5 C 297.167,73.5 299.833,73.5 302.5,73.5C 302.666,77.8461 302.499,82.1794 302,86.5C 295.87,91.7232 289.87,91.7232 284,86.5C 283.107,83.0838 283.607,79.9172 285.5,77C 288.459,75.3957 291.459,74.2291 294.5,73.5 Z"/></g>
<g><path style="opacity:0.933" fill="#fefffe" d="M 615.5,34.5 C 626.303,33.8755 636.636,35.7088 646.5,40C 650.381,42.9276 652.881,46.7609 654,51.5C 654.5,68.8301 654.667,86.1635 654.5,103.5C 647.5,103.5 640.5,103.5 633.5,103.5C 634.399,97.1098 633.065,96.2765 629.5,101C 619.972,106.515 610.305,106.849 600.5,102C 592.537,94.2963 590.37,85.1296 594,74.5C 597.855,67.6567 603.688,63.49 611.5,62C 618.762,60.5089 626.095,59.6755 633.5,59.5C 632.974,54.1425 629.974,51.3092 624.5,51C 620.833,50.3333 617.167,50.3333 613.5,51C 608.16,52.615 602.827,54.115 597.5,55.5C 597.334,49.8236 597.501,44.1569 598,38.5C 603.872,36.8884 609.705,35.5551 615.5,34.5 Z M 625.5,73.5 C 628.167,73.5 630.833,73.5 633.5,73.5C 633.826,77.8839 633.492,82.2172 632.5,86.5C 626.987,91.0245 621.32,91.3578 615.5,87.5C 612.978,78.6849 616.311,74.0183 625.5,73.5 Z"/></g>
<g><path style="opacity:0.942" fill="#fefffe" d="M 799.5,51.5 C 799.5,68.8333 799.5,86.1667 799.5,103.5C 792.167,103.5 784.833,103.5 777.5,103.5C 777.667,88.4963 777.5,73.4963 777,58.5C 776.013,54.3953 773.346,52.3953 769,52.5C 765.351,53.0773 762.017,54.4106 759,56.5C 758.5,72.1631 758.333,87.8298 758.5,103.5C 751.5,103.5 744.5,103.5 737.5,103.5C 737.5,81.1667 737.5,58.8333 737.5,36.5C 744.5,36.5 751.5,36.5 758.5,36.5C 758.337,38.8568 758.503,41.1902 759,43.5C 769.79,32.9603 781.29,31.9603 793.5,40.5C 796.325,43.8232 798.325,47.4899 799.5,51.5 Z"/></g>
<g><path style="opacity:0.953" fill="#fefffe" d="M 387.5,36.5 C 394.5,36.5 401.5,36.5 408.5,36.5C 408.5,58.8333 408.5,81.1667 408.5,103.5C 401.5,103.5 394.5,103.5 387.5,103.5C 387.5,81.1667 387.5,58.8333 387.5,36.5 Z"/></g>
<g><path style="opacity:0.911" fill="#fefffe" d="M 498.5,36.5 C 505.833,36.5 513.167,36.5 520.5,36.5C 520.5,58.8333 520.5,81.1667 520.5,103.5C 513.167,103.5 505.833,103.5 498.5,103.5C 498.5,81.1667 498.5,58.8333 498.5,36.5 Z"/></g>
<g><path style="opacity:0.925" fill="#fefffe" d="M 530.5,36.5 C 549.5,36.5 568.5,36.5 587.5,36.5C 587.666,41.5111 587.499,46.5111 587,51.5C 576.715,63.2402 566.548,75.0735 556.5,87C 566.828,87.4998 577.161,87.6665 587.5,87.5C 587.5,92.8333 587.5,98.1667 587.5,103.5C 568.167,103.5 548.833,103.5 529.5,103.5C 529.334,98.8215 529.501,94.1548 530,89.5C 539.833,77.6667 549.667,65.8333 559.5,54C 549.839,53.5002 540.172,53.3335 530.5,53.5C 530.5,47.8333 530.5,42.1667 530.5,36.5 Z"/></g>
<g><path style="opacity:0.925" fill="#fefffe" d="M 697.5,127.5 C 689.833,127.5 682.167,127.5 674.5,127.5C 677.63,118.779 680.964,110.112 684.5,101.5C 676.096,79.952 668.096,58.2853 660.5,36.5C 668.167,36.5 675.833,36.5 683.5,36.5C 687.358,49.574 691.524,62.574 696,75.5C 700.266,62.87 704.432,50.2034 708.5,37.5C 715.803,36.5027 723.137,36.1694 730.5,36.5C 720.093,67.0557 709.093,97.3891 697.5,127.5 Z"/></g>
</svg>
